<svg xmlns="http://www.w3.org/2000/svg" viewBox="0 0 885.11 207.69">
  <defs>
    <style>
      .cls-1 {
        fill: #fff;
      }
    </style>
  </defs>
  <title>atheycreeklogo2</title>
  <g id="Layer_2" data-name="Layer 2">
    <g id="Layer_1-2" data-name="Layer 1">
      <g>
        <path d="M208.33,60.58h-29l-6.16,18.22H183V88.87h-31.7V78.81H161l22-61.32h-9.73V8.4h41.13v9.08H204.31l22.52,61.32h9V88.87H204.3V78.81h10Zm-3-9.43L194.58,17.48h-1.1L182.33,51.15Z"/>
        <path d="M238.49,42.65V32.87h7.29V24.25l11-10.07V32.87h10.36v9.78H256.77V69.84q0,6.54.72,8.07t3.62,1.53a16.34,16.34,0,0,0,6-1.16v10a25,25,0,0,1-8.45,1.5,13.75,13.75,0,0,1-8.16-2.23A9.48,9.48,0,0,1,246.59,82q-.81-3.35-.81-11.57V42.65Z"/>
        <path d="M283.21,79.1V18.18H273.09V8.4h21.12V39.29q9.89-8,18.8-8a16.58,16.58,0,0,1,9.14,2.31,11.64,11.64,0,0,1,4.89,6.1q1.3,3.79,1.3,11.08V79.1h9.55v9.78H317.35V54.62a56.4,56.4,0,0,0-.4-8.5,5.64,5.64,0,0,0-2.23-3.53,6.91,6.91,0,0,0-4.31-1.39q-6.36,0-16.2,7.23V79.1h9.72v9.78H273.09V79.1Z"/>
        <path d="M402.1,63.65H355a20.38,20.38,0,0,0,6.13,12.55,18.21,18.21,0,0,0,13,4.8,21.34,21.34,0,0,0,18.22-9.26L402.1,76a29.29,29.29,0,0,1-12.32,10.91,36.87,36.87,0,0,1-15.85,3.56,32.11,32.11,0,0,1-22-8q-9.11-8-9.11-21.61,0-12.9,8.88-21.23a29,29,0,0,1,20.39-8.33q11.28,0,20.45,8.13T402.1,63.65Zm-11.34-8A20,20,0,0,0,384.63,45a17,17,0,0,0-12.21-4.77,16.08,16.08,0,0,0-11.28,4.31,18.4,18.4,0,0,0-5.73,11.14Z"/>
        <path d="M434.84,87.89l-18.4-45.24h-9.31V32.87h27.71v9.78h-6.71l12.09,31,11.86-31h-7.41V32.87h27.13v9.78h-8.33L435.77,114H417.19v-9.6h10.93Z"/>
        <path d="M620,57.18,630.42,63a35.14,35.14,0,0,1-14.26,20.8,42.51,42.51,0,0,1-24.67,7.38q-18.28,0-29.33-11.86T551.11,50q0-19.15,11.11-30.49t29-11.34q15.79,0,26.55,8.62V9.45h10.41V35.31H617.75A26.06,26.06,0,0,0,607,23.13a29.28,29.28,0,0,0-15.22-4.31,25.26,25.26,0,0,0-19.76,8.68q-7.72,8.68-7.72,21.93,0,13.6,8.27,22.22a26.28,26.28,0,0,0,19.61,8.62,26.82,26.82,0,0,0,17-6Q616.83,68.29,620,57.18Z"/>
        <path d="M650,79.1V42.65H638.7V32.87h20.08V45.48a22.2,22.2,0,0,1,5.15-8.16,16.39,16.39,0,0,1,7-4.28,38.3,38.3,0,0,1,10-1h2.89V43.11h-2.2q-8.39,0-12.52,1.68a11.25,11.25,0,0,0-6.13,6.1q-2,4.43-2,15.88V79.1h12.21v9.78H638.7V79.1Z"/>
        <path d="M743.12,63.65H696a20.38,20.38,0,0,0,6.13,12.55,18.21,18.21,0,0,0,13,4.8,21.34,21.34,0,0,0,18.22-9.26L743.12,76A29.29,29.29,0,0,1,730.8,86.94a36.87,36.87,0,0,1-15.85,3.56,32.1,32.1,0,0,1-22-8q-9.11-8-9.11-21.61,0-12.9,8.88-21.23a29,29,0,0,1,20.39-8.33q11.28,0,20.45,8.13T743.12,63.65Zm-11.34-8A20,20,0,0,0,725.65,45a17,17,0,0,0-12.21-4.77,16.08,16.08,0,0,0-11.28,4.31,18.4,18.4,0,0,0-5.73,11.14Z"/>
        <path d="M811,63.65H763.95a20.38,20.38,0,0,0,6.13,12.55,18.21,18.21,0,0,0,13,4.8,21.34,21.34,0,0,0,18.22-9.26L811,76a29.29,29.29,0,0,1-12.32,10.91,36.87,36.87,0,0,1-15.85,3.56,32.1,32.1,0,0,1-22-8q-9.11-8-9.11-21.61,0-12.9,8.88-21.23a29,29,0,0,1,20.39-8.33q11.28,0,20.45,8.13T811,63.65Zm-11.34-8A20,20,0,0,0,793.57,45a17,17,0,0,0-12.21-4.77,16.08,16.08,0,0,0-11.28,4.31,18.4,18.4,0,0,0-5.73,11.14Z"/>
        <path d="M828.4,79.1V18.18H818.33V8.4h21.06V58.67L860.33,42H851V32.87h31V42h-8.56l-21,17.47L872.13,79.1H882v9.78H867.56L839.39,60.7V79.1h9.66v9.78H818.33V79.1Z"/>
      </g>
      <g>
        <path d="M119.05,175.55l-.76,7.58C106.35,196,89.29,204,67.68,204,31.09,204,0,178,0,138,0,97.83,31.09,71.86,67.68,71.86c18.77,0,38.29,6.26,49.86,18.58l.76,10.81-1.14.38c-8.91-19.15-28.63-26-49.48-26-31.09,0-56.11,23.7-56.11,62.37s25,62.18,56.11,62.18c23.7,0,37.16-7.77,50.24-25.21Z"/>
        <path d="M176.3,203c-19.91,0-36.4-13.65-36.4-35.45s16.49-35.26,36.4-35.26c19.72,0,36.21,13.46,36.21,35.26S196,203,176.3,203Zm0-68.06c-15.17,0-27.3,12.13-27.3,32.61,0,20.66,12.13,32.61,27.3,32.61,15,0,27.11-11.94,27.11-32.61C203.41,147.12,191.28,135,176.3,135Z"/>
        <path d="M305.78,201a56.83,56.83,0,0,0-10-.76,54.68,54.68,0,0,0-9.86.76l-.19-.76c3.79-1.71,5.5-3.6,5.69-8.15.38-12.32.38-21.8.38-28.44,0-19-6.64-27.68-22-27.68-11.75,0-21.42,7-25.59,18.77v8.91c0,10.24,0,16.11.38,28.44.19,4.55,1.9,6.45,5.69,8.15L250,201a54.68,54.68,0,0,0-9.86-.76,56.83,56.83,0,0,0-10,.76l-.19-.76c4-1.71,5.69-3.79,5.88-8.15.38-12.32.38-19.53.38-28.44,0-2.46,0-10.24-.38-16.87-.38-5.31-3.22-7.39-6.07-7.39l-.19-.76c5.69-1.14,10.81-2.46,14.79-6.82l.57.57c-.38,5.88-.57,11.19-.76,16.3,4.17-10,13.84-16.3,25.59-16.3,22,0,30,12.51,30,31.28,0,6.63,0,16.11.38,28.44.19,4.55,1.9,6.45,5.88,8.15Z"/>
        <path d="M346.92,203c-9.29,0-18.2-3.41-23.13-7l-2.65-9.86.95-.38c5.69,8.72,14.6,14.41,25,14.41,12.89,0,20.85-6.63,20.85-14.79,0-7.2-3.6-10.81-21-15.73-18.58-5.31-23.32-9.29-23.32-18.2,0-13.46,12.32-19.15,24.83-19.15,9.48,0,15.17,1.9,19.53,5.31l2.27,8.34-.76.57c-6.07-8.72-12.7-11.56-21.8-11.56-9.29,0-18,4.55-18,13.27,0,6.45,5.69,9.29,19,13.08,20.09,5.69,25.78,11.19,25.78,22.18C374.4,195.08,361.32,203,346.92,203Z"/>
        <path d="M466.92,196.79c-5.69.95-10.81,2.84-14.79,6.63l-.57-.38c.38-6.07.57-11.37.76-16.3-4.17,9.86-13.84,16.3-25.59,16.3-22,0-30-12.51-30-31.28,0-8,0-16.3-.38-28.63-.19-5.31-3.41-6.82-5.88-8l.19-.95A53.33,53.33,0,0,0,400,135a19.28,19.28,0,0,0,4.93-.38c-.38,12.32-.38,29.19-.38,37.16,0,18.77,6.82,27.68,22.18,27.68,11.75,0,21.42-7,25.59-19v-8.72c0-10.43,0-16.3-.38-28.63-.19-5.31-3.22-6.82-5.88-8l.19-.95a41,41,0,0,0,8.53.95,30.89,30.89,0,0,0,5.88-.57c-.57,12.13-.38,28.06-.38,37.16,0,7.2-.19,4.36.38,16.68.19,5.5,3.22,7.39,6.07,7.39Z"/>
        <path d="M595.44,194.7c-4,4.17-12.32,8.34-19.53,8.34-16.11,0-18.39-11.18-18.2-18.77.19-11.94.38-17.63.38-45.31H544.83l-.38-1.71c15.73-1.71,19.34-8.15,20.47-22.18l1.52.19c-.38,5.12-.57,11.75-.57,15.92V135h25.4v4h-25.4c0,23.89.19,34.12.38,45.31.19,11.38,4.74,15,13.46,14.79,4.93,0,9.48-1.52,15.36-5.5Z"/>
        <path d="M671.27,196.79c-5.88.95-10.81,2.84-14.79,6.26l-.57-.57a96.12,96.12,0,0,0,.57-10.43c-4.93,6.26-14.41,10.81-23.51,10.81-17.06,0-28.25-7.58-28.25-21.8,0-13.84,16.87-21.8,36.21-21.8a76.33,76.33,0,0,1,15.92,1.33v-7c0-11.94-8.72-18.39-19.53-18.39-14.22,0-21.61,6.83-26.92,14.22l-.95-.57v-6.45c8.53-7,16.87-10,28.25-10,16.87,0,26.92,7.77,26.92,21.23,0,11.19,0,22.75.38,34.88.19,5.5,3.41,7.39,6.07,7.58Zm-30.33-34.5c-16.11,0-26.92,5.5-26.92,18.77,0,11.56,6.64,18,19,18,10.43,0,17.63-4.36,23.7-11.75.19-5.69.19-12.89.19-23.51C651.37,162.47,647.2,162.28,640.94,162.28Z"/>
        <path d="M762.65,201a56.83,56.83,0,0,0-10-.76,54.69,54.69,0,0,0-9.86.76l-.19-.76c3.79-1.71,5.5-3.6,5.69-8.15.38-12.32.38-21.8.38-28.44,0-19-6.63-27.68-22-27.68-11.75,0-21.42,7-25.59,18.77v8.91c0,10.24,0,16.11.38,28.44.19,4.55,1.9,6.45,5.69,8.15l-.19.76a54.67,54.67,0,0,0-9.86-.76,56.84,56.84,0,0,0-10,.76l-.19-.76c4-1.71,5.69-3.79,5.88-8.15.38-12.32.38-19.53.38-28.44,0-2.46,0-10.24-.38-16.87-.38-5.31-3.22-7.39-6.07-7.39l-.19-.76c5.69-1.14,10.81-2.46,14.79-6.82l.57.57c-.38,5.88-.57,11.19-.76,16.3,4.17-10,13.84-16.3,25.59-16.3,22,0,30,12.51,30,31.28,0,6.63,0,16.11.38,28.44.19,4.55,1.9,6.45,5.88,8.15Z"/>
        <path d="M823.31,194.7c-4,4.17-12.32,8.34-19.53,8.34-16.11,0-18.39-11.18-18.2-18.77.19-11.94.38-17.63.38-45.31H772.69l-.38-1.71c15.73-1.71,19.34-8.15,20.47-22.18l1.52.19c-.38,5.12-.57,11.75-.57,15.92V135h25.4v4h-25.4c0,23.89.19,34.12.38,45.31.19,11.38,4.74,15,13.46,14.79,4.93,0,9.48-1.52,15.36-5.5Z"/>
        <path d="M857.62,203c-9.29,0-18.2-3.41-23.13-7l-2.65-9.86.95-.38c5.69,8.72,14.6,14.41,25,14.41,12.89,0,20.85-6.63,20.85-14.79,0-7.2-3.6-10.81-21-15.73-18.58-5.31-23.32-9.29-23.32-18.2,0-13.46,12.32-19.15,24.83-19.15,9.48,0,15.17,1.9,19.53,5.31l2.27,8.34-.76.57c-6.07-8.72-12.7-11.56-21.8-11.56-9.29,0-18,4.55-18,13.27,0,6.45,5.69,9.29,19,13.08,20.09,5.69,25.78,11.19,25.78,22.18C885.11,195.08,872,203,857.62,203Z"/>
      </g>
      <g>
        <path d="M523.25,31.78q0,13.23,0,26.46c0,1.16-.19,1.36-1.35,1.37H501.83c-1,0-1.25-.24-1.25-1.28q0-26.58,0-53.16c0-1,.23-1.26,1.26-1.26H522c1,0,1.22.24,1.22,1.23Q523.25,18.46,523.25,31.78ZM503.43,49.69a8.48,8.48,0,1,0,8.65-8.46A8.47,8.47,0,0,0,503.43,49.69Zm17-36a8.48,8.48,0,1,0-8.52,8.49A8.46,8.46,0,0,0,520.39,13.7Zm0,18a8.48,8.48,0,1,0-8.44,8.5A8.51,8.51,0,0,0,520.39,31.69Z"/>
        <path d="M510.48,61.84h2.88V79.69h-2.88Z"/>
        <path d="M523.55,4.73l3.82.47c.4,0,.44.3.35.62-.46,1.71-.84,3.44-1.42,5.11-.73,2.12-1.62,4.18-2.44,6.26-.07.18-.17.35-.32.62Z"/>
        <path d="M500.25,17.69A54.82,54.82,0,0,1,496.1,5.88c-.08-.44,0-.67.47-.72l3.69-.42Z"/>
        <path d="M496.14,23.72l4.1-.47V35.75A53.06,53.06,0,0,1,496.14,23.72Z"/>
        <path d="M523.57,23.25l4.1.47a53,53,0,0,1-4.1,12Z"/>
        <path d="M500.27,41.26V53.8a52.17,52.17,0,0,1-4.12-12.07Z"/>
        <path d="M523.56,53.79V41.4a11.21,11.21,0,0,1,3.71.35c.47.11.31.5.25.75a24.47,24.47,0,0,1-.71,2.84c-1,2.85-2,5.67-3,8.51Z"/>
        <path d="M504.21,2.22c.33-.29.62-.71,1-.86a17.42,17.42,0,0,1,3.3-1,18.73,18.73,0,0,1,8.62.42,8.56,8.56,0,0,1,1.76.82,4.36,4.36,0,0,1,.78.82H504.32Z"/>
        <path d="M520.46,3.53H503.37c-.05-.48.23-.69.62-.81a1.79,1.79,0,0,1,.49,0h14.85C520.13,2.69,520.34,2.85,520.46,3.53Z"/>
        <path d="M509.68,59.92h4.47c.28,1.05-.12,1.56-1.2,1.56H510.8C509.79,61.48,509.39,60.94,509.68,59.92Z"/>
        <path class="cls-1" d="M503.43,49.69a8.48,8.48,0,1,1,8.29,8.5A8.5,8.5,0,0,1,503.43,49.69Zm8.46-8.13a8.17,8.17,0,1,0,8.18,8A8.14,8.14,0,0,0,511.89,41.56Z"/>
        <path class="cls-1" d="M520.39,13.7A8.48,8.48,0,1,1,512,5.21,8.51,8.51,0,0,1,520.39,13.7Zm-8.47,8.14a8.17,8.17,0,1,0-8.17-8.18A8.13,8.13,0,0,0,511.92,21.84Z"/>
        <path class="cls-1" d="M520.39,31.69a8.48,8.48,0,1,1-8.52-8.49A8.48,8.48,0,0,1,520.39,31.69Zm-.32,0a8.16,8.16,0,1,0-8.19,8.16A8.13,8.13,0,0,0,520.07,31.71Z"/>
        <path d="M511.89,41.56a8.17,8.17,0,1,1-8.14,8.21A8.14,8.14,0,0,1,511.89,41.56Zm-.07,14.1A5.94,5.94,0,1,0,506,49.59,6,6,0,0,0,511.82,55.66Z"/>
        <path d="M511.92,21.84a8.17,8.17,0,1,1,8.15-8.13A8.12,8.12,0,0,1,511.92,21.84Zm0-2.22A5.95,5.95,0,1,0,506,13.68,6,6,0,0,0,511.88,19.63Z"/>
        <path d="M520.07,31.71a8.16,8.16,0,1,1-8.12-8.16A8.16,8.16,0,0,1,520.07,31.71Zm-8.13-6a6,6,0,1,0,5.92,5.95A6,6,0,0,0,511.94,25.75Z"/>
        <path class="cls-1" d="M511.82,55.66a5.94,5.94,0,1,1,.39-11.88,5.94,5.94,0,0,1-.39,11.88Z"/>
        <path class="cls-1" d="M511.88,19.63a5.95,5.95,0,1,1,6-5.9A6,6,0,0,1,511.88,19.63Z"/>
        <path class="cls-1" d="M511.94,25.75a6,6,0,1,1-6,6A6,6,0,0,1,511.94,25.75Z"/>
        <path d="M528,205.36v1.16c0,.64-7.8,1.16-16.31,1.16s-16.31-.52-16.31-1.16v-1.16s4.67,0,4.67-5.4c0,0,3.06-3.23,5.87-3.23h11.43c3.47,0,6.05,3.23,6.05,3.23C523.83,205.36,528,205.36,528,205.36Z"/>
        <rect x="510.55" y="74.94" width="2.8" height="122.25"/>
      </g>
    </g>
  </g>
</svg>
