<svg xmlns="http://www.w3.org/2000/svg" viewBox="0 0 1180.91 499.73">
  <defs>
    <style>
      .cls-1 {
        fill: #fff;
      }

      .cls-2, .cls-3, .cls-4, .cls-5, .cls-6, .cls-7, .cls-8, .cls-9 {
        fill: none;
        stroke: #fff;
        stroke-miterlimit: 8;
      }

      .cls-2, .cls-3, .cls-4, .cls-5, .cls-6, .cls-7, .cls-8 {
        stroke-linecap: round;
      }

      .cls-2, .cls-3, .cls-4, .cls-5, .cls-6 {
        stroke-dasharray: 23;
      }

      .cls-3, .cls-9 {
        stroke-width: 2px;
      }

      .cls-4 {
        stroke-width: 3px;
      }

      .cls-5 {
        stroke-width: 4px;
      }

      .cls-6 {
        stroke-width: 5px;
      }

      .cls-7 {
        stroke-width: 6px;
      }

      .cls-8 {
        stroke-width: 8px;
      }
    </style>
  </defs>
  <title>atheycreeklogo3_3</title>
  <g id="Layer_2" data-name="Layer 2">
    <g id="Layer_1-2" data-name="Layer 1">
      <g>
        <path d="M85,320.91H41.84l-9.17,27.15H47.24v15H0v-15H14.51L47.25,256.7H32.76V243.16H94V256.7h-15l33.55,91.37H126v15H79v-15H94Zm-4.52-14-16-50.17H62.93L46.32,306.86Z"/>
        <path d="M130,294.19V279.62h10.86V266.78l16.38-15v27.84h15.43v14.57H157.23v40.51q0,9.74,1.08,12T163.7,349a24.34,24.34,0,0,0,9-1.72V362.2a37.3,37.3,0,0,1-12.58,2.24q-7.5,0-12.15-3.32a14.13,14.13,0,0,1-5.86-8.32q-1.21-5-1.21-17.24V294.19Z"/>
        <path d="M196.62,348.5V257.73H181.54V243.16H213v46q14.74-11.9,28-11.9,8.27,0,13.62,3.45a17.34,17.34,0,0,1,7.28,9.09q1.94,5.65,1.94,16.51V348.5h14.22v14.57h-30.6V312a84,84,0,0,0-.6-12.67,8.41,8.41,0,0,0-3.32-5.26,10.29,10.29,0,0,0-6.42-2.07q-9.48,0-24.14,10.77V348.5h14.48v14.57H181.54V348.5Z"/>
        <path d="M373.77,325.48H303.6q1.55,11.55,9.14,18.71t19.4,7.15q17.15,0,27.15-13.79l14.48,6.38a43.65,43.65,0,0,1-18.36,16.25,54.94,54.94,0,0,1-23.62,5.3q-19.14,0-32.71-11.94t-13.58-32.2q0-19.22,13.23-31.64t30.39-12.41q16.81,0,30.47,12.11T373.77,325.48Zm-16.9-11.9a29.84,29.84,0,0,0-9.14-15.9,25.28,25.28,0,0,0-18.19-7.11A24,24,0,0,0,312.74,297a27.41,27.41,0,0,0-8.53,16.59Z"/>
        <path d="M416,361.6l-27.41-67.41H374.71V279.62H416v14.57H406l18,46.2,17.67-46.2h-11V279.62h40.43v14.57H458.67L417.38,400.48H389.71V386.17H406Z"/>
        <path d="M790.5,314.28l15.6,8.71q-5.26,20-21.25,31t-36.76,11q-27.24,0-43.7-17.67t-16.46-43.7q0-28.53,16.55-45.43t43.19-16.9q23.53,0,39.57,12.84V243.16h15.52v38.53H787.23a38.83,38.83,0,0,0-15.95-18.15,43.62,43.62,0,0,0-22.67-6.42q-17.93,0-29.44,12.93t-11.51,32.67q0,20.26,12.33,33.1t29.22,12.84a40,40,0,0,0,25.26-8.92Q785.85,330.83,790.5,314.28Z"/>
        <path d="M835.24,348.5V294.19H818.43V279.62h29.91v18.79A33.07,33.07,0,0,1,856,286.26a24.4,24.4,0,0,1,10.39-6.38q5.47-1.55,15-1.55h4.31v16.55h-3.28q-12.5,0-18.66,2.5a16.77,16.77,0,0,0-9.14,9.09q-3,6.59-3,23.66V348.5h18.19v14.57H818.43V348.5Z"/>
        <path d="M974,325.48H903.86Q905.41,337,913,344.19t19.4,7.15q17.15,0,27.15-13.79L974,343.93a43.65,43.65,0,0,1-18.36,16.25,55,55,0,0,1-23.62,5.3q-19.14,0-32.71-11.94t-13.58-32.2q0-19.22,13.23-31.64t30.39-12.41q16.81,0,30.47,12.11T974,325.48Zm-16.9-11.9a29.84,29.84,0,0,0-9.14-15.9,25.28,25.28,0,0,0-18.19-7.11A24,24,0,0,0,913,297a27.42,27.42,0,0,0-8.53,16.59Z"/>
        <path d="M1075.22,325.48h-70.17q1.55,11.55,9.14,18.71t19.4,7.15q17.15,0,27.15-13.79l14.48,6.38a43.65,43.65,0,0,1-18.36,16.25,55,55,0,0,1-23.62,5.3q-19.14,0-32.71-11.94T987,321.35q0-19.22,13.23-31.64t30.39-12.41q16.81,0,30.47,12.11T1075.22,325.48Zm-16.9-11.9a29.84,29.84,0,0,0-9.14-15.9,25.28,25.28,0,0,0-18.19-7.11,24,24,0,0,0-16.81,6.42,27.42,27.42,0,0,0-8.53,16.59Z"/>
        <path d="M1101.08,348.5V257.73h-15V243.16h31.38v74.91l31.2-24.91h-13.88V279.62h46.12v13.53h-12.76l-31.29,26,29.39,29.31h14.65v14.57h-21.46l-42-42V348.5h14.4v14.57h-45.77V348.5Z"/>
      </g>
      <g>
        <path d="M314.16,452.71a14.53,14.53,0,0,0-2.34-5.23,17.41,17.41,0,0,0-4.29-4.23,21,21,0,0,0-5.92-2.83,24.31,24.31,0,0,0-7.18-1,26.35,26.35,0,0,0-9.87,1.77A20,20,0,0,0,277,446.4a23.65,23.65,0,0,0-4.8,8.64,38.89,38.89,0,0,0-1.69,12,39.44,39.44,0,0,0,1.69,12.1,24.46,24.46,0,0,0,4.8,8.78,20.24,20.24,0,0,0,7.49,5.38,25,25,0,0,0,9.75,1.83q8.12,0,13.38-3.63a15.65,15.65,0,0,0,6.52-10.61h4.75a21.73,21.73,0,0,1-2.8,8,20.59,20.59,0,0,1-5.32,5.92,23.44,23.44,0,0,1-7.38,3.66,31.22,31.22,0,0,1-9,1.26,29.42,29.42,0,0,1-11.92-2.32,25.35,25.35,0,0,1-9-6.55,29.31,29.31,0,0,1-5.72-10.27,42.79,42.79,0,0,1-2-13.53,41.81,41.81,0,0,1,2-13.38,28.89,28.89,0,0,1,5.75-10.15,25.19,25.19,0,0,1,9-6.46,30,30,0,0,1,11.87-2.26,27.94,27.94,0,0,1,8.61,1.32,25.88,25.88,0,0,1,7.35,3.69,22.8,22.8,0,0,1,5.49,5.66,20.54,20.54,0,0,1,3.09,7.23Z"/>
        <path d="M359.34,434.81a30.22,30.22,0,0,1,11.84,2.29,26.71,26.71,0,0,1,9.35,6.52,30.27,30.27,0,0,1,6.12,10.18,38,38,0,0,1,2.2,13.27,38.76,38.76,0,0,1-2.17,13.27,30.74,30.74,0,0,1-6.09,10.32,27.21,27.21,0,0,1-9.32,6.69,31.22,31.22,0,0,1-23.88,0,27.31,27.31,0,0,1-9.35-6.66,30.4,30.4,0,0,1-6.09-10.29,38.91,38.91,0,0,1-2.17-13.33,38.15,38.15,0,0,1,2.2-13.33,29.66,29.66,0,0,1,6.15-10.15,27.23,27.23,0,0,1,9.35-6.49A30.15,30.15,0,0,1,359.34,434.81Zm-.06,60.34a26,26,0,0,0,9.92-1.86,21.74,21.74,0,0,0,7.86-5.46,25.1,25.1,0,0,0,5.15-8.84A36,36,0,0,0,384,467.07a35,35,0,0,0-1.86-11.9,24.87,24.87,0,0,0-5.15-8.67,21.47,21.47,0,0,0-7.78-5.32,26.1,26.1,0,0,0-9.81-1.8,26.49,26.49,0,0,0-10,1.83,21.94,21.94,0,0,0-7.86,5.35,24.62,24.62,0,0,0-5.18,8.66,34.76,34.76,0,0,0-1.86,11.84A36,36,0,0,0,336.4,479a25.3,25.3,0,0,0,5.12,8.84,21.46,21.46,0,0,0,7.83,5.46A26,26,0,0,0,359.28,495.15Z"/>
        <path d="M450.33,498.58h-6l-38.2-57.19v57.19h-4.58V436h6.29L445.75,493V436h4.58Z"/>
        <path d="M489.22,499.73a41,41,0,0,1-11.1-1.34,23.34,23.34,0,0,1-8-3.83,16.81,16.81,0,0,1-4.95-6,21,21,0,0,1-2-7.92h4.52a17.45,17.45,0,0,0,2.57,7,14.62,14.62,0,0,0,4.66,4.46,19.34,19.34,0,0,0,6.32,2.34,39.66,39.66,0,0,0,7.55.69,29.36,29.36,0,0,0,7.52-.89,17.5,17.5,0,0,0,5.72-2.57,11.66,11.66,0,0,0,3.63-4.06,11.24,11.24,0,0,0,1.26-5.35,11.64,11.64,0,0,0-1.09-5.29,9.65,9.65,0,0,0-3.66-3.75,28.4,28.4,0,0,0-6.78-2.86q-4.2-1.26-10.44-2.57a56.68,56.68,0,0,1-8.84-2.63,23.22,23.22,0,0,1-6.09-3.46,12.44,12.44,0,0,1-3.55-4.52,14.31,14.31,0,0,1-1.14-5.92,14.53,14.53,0,0,1,1.54-6.69,15.23,15.23,0,0,1,4.38-5.2,21.07,21.07,0,0,1,6.81-3.37,30.26,30.26,0,0,1,8.78-1.2,32.77,32.77,0,0,1,8.81,1.12,22.56,22.56,0,0,1,7,3.23,17,17,0,0,1,7.23,12h-4.4a15.2,15.2,0,0,0-2.06-4.69,13.8,13.8,0,0,0-3.69-3.75,18,18,0,0,0-5.38-2.46,26.09,26.09,0,0,0-7.12-.89q-8.41,0-12.73,3.09a9.85,9.85,0,0,0-4.32,8.46,10.61,10.61,0,0,0,.8,4.29,8.4,8.4,0,0,0,2.72,3.29,18.66,18.66,0,0,0,5.06,2.57,60.84,60.84,0,0,0,7.83,2.09l5.66,1.2q2.92.63,5.69,1.49a34.87,34.87,0,0,1,5.29,2.12,17.06,17.06,0,0,1,4.38,3.09,13.91,13.91,0,0,1,3,4.38,15,15,0,0,1,1.12,6,16.09,16.09,0,0,1-1.69,7.35,17.52,17.52,0,0,1-4.69,5.78,22,22,0,0,1-7.15,3.77A29.08,29.08,0,0,1,489.22,499.73Z"/>
        <path d="M549.44,499.73a34.22,34.22,0,0,1-9.58-1.17,20.25,20.25,0,0,1-6.61-3.17,15.68,15.68,0,0,1-4.17-4.69,23.41,23.41,0,0,1-2.34-5.72,32.26,32.26,0,0,1-1-6.29q-.2-3.26-.2-6.35V436h4.58v36.2a43.34,43.34,0,0,0,1.29,11.64,16,16,0,0,0,3.77,7,12.8,12.8,0,0,0,6.06,3.43,33.21,33.21,0,0,0,8.21.92,34.19,34.19,0,0,0,8.32-.92,12.36,12.36,0,0,0,6.06-3.46,16.4,16.4,0,0,0,3.69-7,44,44,0,0,0,1.26-11.61V436h4.58v36.37a55.65,55.65,0,0,1-1.09,11.55,21.28,21.28,0,0,1-3.78,8.61,16.87,16.87,0,0,1-7.32,5.38A31.77,31.77,0,0,1,549.44,499.73Z"/>
        <path d="M626.76,498.58H589.87V436h4.58v58h32.31Z"/>
        <path d="M682.23,440.53h-21.9v58h-4.58v-58H634.08V436h48.16Z"/>
        <path d="M743,498.58h-5.49l-7.66-20.13H699q-1.66,4.75-3.6,10l-3.72,10.09h-4.86q3.09-8.12,6.09-15.9l6-15.47,6-15.47q3-7.78,6.09-15.84h6.46Zm-14.47-23.73L714,440l-13.78,34.83Z"/>
        <path d="M801.08,498.58h-6l-38.2-57.19v57.19h-4.58V436h6.29L796.5,493V436h4.58Z"/>
        <path d="M860,440.53h-21.9v58h-4.58v-58H811.88V436H860Z"/>
        <path d="M894.3,499.73a40.94,40.94,0,0,1-11.09-1.34,23.34,23.34,0,0,1-8-3.83,16.82,16.82,0,0,1-4.95-6,21,21,0,0,1-2-7.92h4.52a17.45,17.45,0,0,0,2.57,7,14.62,14.62,0,0,0,4.66,4.46,19.35,19.35,0,0,0,6.32,2.34,39.65,39.65,0,0,0,7.55.69,29.36,29.36,0,0,0,7.52-.89,17.49,17.49,0,0,0,5.72-2.57,11.66,11.66,0,0,0,3.63-4.06,11.24,11.24,0,0,0,1.26-5.35,11.64,11.64,0,0,0-1.09-5.29,9.65,9.65,0,0,0-3.66-3.75,28.4,28.4,0,0,0-6.78-2.86q-4.2-1.26-10.44-2.57a56.65,56.65,0,0,1-8.84-2.63,23.23,23.23,0,0,1-6.09-3.46,12.44,12.44,0,0,1-3.55-4.52,14.32,14.32,0,0,1-1.14-5.92,14.53,14.53,0,0,1,1.54-6.69,15.24,15.24,0,0,1,4.38-5.2,21.07,21.07,0,0,1,6.81-3.37,30.26,30.26,0,0,1,8.78-1.2,32.78,32.78,0,0,1,8.81,1.12,22.57,22.57,0,0,1,7,3.23,17.05,17.05,0,0,1,7.23,12h-4.4a15.19,15.19,0,0,0-2.06-4.69,13.79,13.79,0,0,0-3.69-3.75,18,18,0,0,0-5.38-2.46,26.09,26.09,0,0,0-7.12-.89q-8.41,0-12.73,3.09a9.85,9.85,0,0,0-4.32,8.46,10.62,10.62,0,0,0,.8,4.29,8.4,8.4,0,0,0,2.72,3.29,18.65,18.65,0,0,0,5.06,2.57,60.86,60.86,0,0,0,7.84,2.09l5.66,1.2q2.92.63,5.69,1.49a34.81,34.81,0,0,1,5.29,2.12,17.07,17.07,0,0,1,4.38,3.09,13.92,13.92,0,0,1,3,4.38,15,15,0,0,1,1.12,6,16.09,16.09,0,0,1-1.69,7.35,17.52,17.52,0,0,1-4.69,5.78,22,22,0,0,1-7.15,3.77A29.09,29.09,0,0,1,894.3,499.73Z"/>
      </g>
    </g>
    <g id="Layer_3" data-name="Layer 3">
      <path d="M807.46,7a3.55,3.55,0,0,1,3,5.38L701.72,193.68c-6.49-12.46-22.05-41.74-41.45-74.33C629.56,67.78,602.68,30.06,580.18,7H807.46M537.14,7c2.1,46.12-12.21,98.53-24.71,134.67a662.15,662.15,0,0,1-25.13,62.15L372.44,12.38a3.55,3.55,0,0,1,3-5.38H537.14M807.46,0h-432a10.55,10.55,0,0,0-9.05,16l216,360a10.56,10.56,0,0,0,18.1,0l216-360a10.55,10.55,0,0,0-9-16Zm-216,377.69a8.49,8.49,0,0,1-5.27-2l-96.28-161S549.44,96.86,544,4.11h23.12C624,55.51,698.76,203.2,698.76,203.2L597,375.1a8,8,0,0,1-5.61,2.59Z"/>
      <g>
        <path class="cls-1" d="M591.42,376.19a7,7,0,0,1-4.13-1.56L491.58,214.56c5-10.16,58.45-120.95,54-209h21C620.42,54.73,691.26,191.85,697,203.15L595.82,374.2A6.5,6.5,0,0,1,591.42,376.19Z"/>
        <path d="M566,7.11c52.67,48.37,121.46,180.58,129.38,196L594.62,373.27a4.93,4.93,0,0,1-3.21,1.41,5.31,5.31,0,0,1-3-1.1L493.28,214.49a652.61,652.61,0,0,0,28.53-69.36c12.77-36.88,27.37-90.4,25.35-138H566m1.16-3H544c5.44,92.75-54.13,210.52-54.13,210.52l96.28,161a8.49,8.49,0,0,0,5.27,2A8,8,0,0,0,597,375.1L698.76,203.2S624,55.51,567.12,4.11Z"/>
      </g>
      <path d="M698.76,203.2,597,375.1s-4.62,5.44-10.88.54l-96.28-161S549.44,96.86,544,4.11h23.12C624,55.51,698.76,203.2,698.76,203.2Z"/>
      <path class="cls-2" d="M560.24,12.4c.23.48.62,1.28,1.87,4.15"/>
      <path class="cls-1" d="M556.3,4.82,558,8a.13.13,0,1,1-.22.12h0Z"/>
      <path class="cls-3" d="M564,21.9c.65,1.67,1.14,3,2.61,7.11"/>
      <line class="cls-4" x1="569.85" y1="37.22" x2="573.17" y2="47.59"/>
      <line class="cls-5" x1="576.96" y1="60.32" x2="580.82" y2="77.08"/>
      <line class="cls-6" x1="584.52" y1="95.67" x2="587.61" y2="117.24"/>
      <line class="cls-7" x1="590.9" y1="142.22" x2="593.77" y2="176.09"/>
      <line class="cls-8" x1="595.58" y1="210.78" x2="596.53" y2="265.91"/>
      <path class="cls-9" d="M591.47,372.11"/>
    </g>
  </g>
</svg>
