<svg xmlns="http://www.w3.org/2000/svg" viewBox="0 0 909.95 498">
  <defs>
    <style>
      .cls-1 {
        font-size: 118.48px;
        font-family: Ubuntu-Light, Ubuntu;
      }

      .cls-2 {
        letter-spacing: 0em;
      }

      .cls-3 {
        letter-spacing: 0.62em;
      }

      .cls-4 {
        letter-spacing: 0em;
      }

      .cls-5 {
        font-size: 189.57px;
        font-family: Goldenbook, Goldenbook;
      }

      .cls-6 {
        letter-spacing: 0.07em;
      }

      .cls-7 {
        letter-spacing: 0em;
      }

      .cls-8 {
        fill: #fff;
      }
    </style>
  </defs>
  <title>Artboard</title>
  <g id="Layer_2" data-name="Layer 2">
    <g id="Layer_1-2" data-name="Layer 1">
      <text class="cls-1" transform="translate(169.24 335.97)">Ath<tspan class="cls-2" x="189.22" y="0">e</tspan><tspan class="cls-3" x="253.79" y="0">y</tspan><tspan x="383.17" y="1.05">C</tspan><tspan class="cls-4" x="455.33" y="0">reek</tspan></text>
      <text class="cls-5" transform="translate(0 443.59)">Consu<tspan class="cls-6" x="493.27" y="0"> </tspan><tspan class="cls-7" x="546.92" y="0">t</tspan><tspan x="603.03" y="0">ants</tspan></text>
      <g>
        <text></text>
        <path d="M550.35,73.73q0,30.69,0,61.39c0,2.69-.44,3.17-3.13,3.17q-23.29,0-46.57,0c-2.37,0-2.9-.56-2.9-3q0-61.67,0-123.34c0-2.38.54-2.92,2.91-2.92h46.86c2.27,0,2.83.56,2.83,2.86Q550.35,42.83,550.35,73.73Zm-46,41.56a19.68,19.68,0,1,0,20.07-19.64A19.65,19.65,0,0,0,504.36,115.29ZM543.72,31.8a19.68,19.68,0,1,0-19.78,19.69A19.63,19.63,0,0,0,543.72,31.8Zm0,41.74a19.68,19.68,0,1,0-19.58,19.71A19.76,19.76,0,0,0,543.72,73.54Z"/>
        <path d="M520.73,143.48h6.69V184.9h-6.69Z"/>
        <path d="M551.06,11l8.87,1.1c.93.11,1,.7.82,1.43-1.08,4-2,8-3.29,11.87-1.69,4.91-3.75,9.7-5.66,14.53-.16.42-.4.8-.74,1.45Z"/>
        <path d="M497,41c-3.93-8.92-7.81-17.8-9.63-27.4-.19-1,.07-1.55,1.08-1.66L497,11Z"/>
        <path d="M487.46,55,497,53.94V83C493.06,74.1,489.32,65.15,487.46,55Z"/>
        <path d="M551.1,54,560.62,55C558.82,65.09,555,74,551.1,83Z"/>
        <path d="M497,95.73v29.09c-4-8.94-7.76-17.91-9.55-28Z"/>
        <path d="M551.07,124.81V96a26,26,0,0,1,8.61.81c1.08.26.72,1.15.59,1.75a56.78,56.78,0,0,1-1.66,6.59c-2.29,6.6-4.7,13.16-7.07,19.73Z"/>
        <path d="M506.18,5.15c.77-.68,1.44-1.65,2.34-2A40.42,40.42,0,0,1,516.19.72a43.46,43.46,0,0,1,20,1,19.86,19.86,0,0,1,4.09,1.91,10.12,10.12,0,0,1,1.81,1.9H506.44Z"/>
        <path d="M543.88,8.18H504.24c-.13-1.11.53-1.61,1.45-1.87a4.16,4.16,0,0,1,1.13-.06h34.46C543.13,6.25,543.61,6.61,543.88,8.18Z"/>
        <path d="M518.87,139h10.37c.64,2.44-.28,3.63-2.77,3.63h-5C519.12,142.65,518.21,141.4,518.87,139Z"/>
        <path class="cls-8" d="M504.36,115.29A19.68,19.68,0,1,1,523.59,135,19.72,19.72,0,0,1,504.36,115.29ZM524,96.42a19,19,0,1,0,19,18.68A18.88,18.88,0,0,0,524,96.42Z"/>
        <path class="cls-8" d="M543.72,31.8a19.68,19.68,0,1,1-19.57-19.7A19.76,19.76,0,0,1,543.72,31.8ZM524.06,50.68a18.95,18.95,0,1,0-18.95-19A18.85,18.85,0,0,0,524.06,50.68Z"/>
        <path class="cls-8" d="M543.72,73.54A19.68,19.68,0,1,1,524,53.83,19.68,19.68,0,0,1,543.72,73.54Zm-.75,0a18.93,18.93,0,1,0-19,18.94A18.86,18.86,0,0,0,543,73.58Z"/>
        <path d="M524,96.42a19,19,0,1,1-18.88,19.05A18.89,18.89,0,0,1,524,96.42Zm-.15,32.71a13.79,13.79,0,1,0-13.59-14.08A13.86,13.86,0,0,0,523.85,129.13Z"/>
        <path d="M524.06,50.68A18.95,18.95,0,1,1,543,31.81,18.85,18.85,0,0,1,524.06,50.68ZM524,45.54a13.8,13.8,0,1,0-13.74-13.8A13.83,13.83,0,0,0,524,45.54Z"/>
        <path d="M543,73.58a18.93,18.93,0,1,1-18.84-18.94A18.92,18.92,0,0,1,543,73.58ZM524.11,59.75a13.81,13.81,0,1,0,13.74,13.8A13.9,13.9,0,0,0,524.11,59.75Z"/>
        <path class="cls-8" d="M523.85,129.13a13.79,13.79,0,1,1,.9-27.56,13.79,13.79,0,0,1-.9,27.56Z"/>
        <path class="cls-8" d="M524,45.54a13.8,13.8,0,1,1,13.86-13.68A13.85,13.85,0,0,1,524,45.54Z"/>
        <path class="cls-8" d="M524.11,59.75a13.81,13.81,0,1,1-13.86,13.82A13.9,13.9,0,0,1,524.11,59.75Z"/>
        <path d="M561.79,476.49v2.7c0,1.49-18.26,2.7-38,2.7s-38-1.21-38-2.7v-2.7s10.83,0,10.83-12.53c0,0,7.11-7.5,13.63-7.5h26.53c8,0,14.2,7.5,14.2,7.5C551.87,476.49,561.79,476.49,561.79,476.49Z"/>
        <rect x="520.89" y="173.87" width="6.51" height="283.65"/>
      </g>
    </g>
  </g>
</svg>
