<svg xmlns="http://www.w3.org/2000/svg" viewBox="0 0 253.4 253.44">
  <defs>
    <style>
      .cls-1 {
        fill: #fff;
      }
    </style>
  </defs>
  <title>safety</title>
  <g id="Layer_2" data-name="Layer 2">
    <g id="Layer_1-2" data-name="Layer 1">
      <g>
        <path d="M126.74,0C196.54.05,253.4,56.91,253.4,126.65S196.18,253.57,126.26,253.44-.11,196.27,0,125.92C.11,56.48,57-.05,126.74,0Zm-.07,247.27a120.69,120.69,0,0,0-.09-241.39C60.26,5.89,6,60.07,5.78,126.45S59.95,247.28,126.67,247.27Z"/>
        <path class="cls-1" d="M126.67,247.27c-66.72,0-121.09-54.32-120.88-120.82S60.26,5.89,126.57,5.88a120.69,120.69,0,0,1,.09,241.39ZM13.81,126.81a112.86,112.86,0,1,0,112.54-113A112.63,112.63,0,0,0,13.81,126.81Z"/>
        <path d="M13.81,126.81A112.86,112.86,0,1,1,126.66,239.58,112.46,112.46,0,0,1,13.81,126.81ZM142,139.92l-1.44-.11q0-2.7,0-5.41c0-24.33-.08-48.66.07-73,0-4.21-1.06-6.07-5.62-5.8a150.76,150.76,0,0,1-18,0c-4.81-.29-6.31,1.35-6.26,6.19.21,24.16.09,48.32.09,72.48q0,2.38,0,4.76l-1.57-.05V59.33c-36.16,5.17-71,43.94-65.46,87.32a8,8,0,0,0,1.84.43q79.73,0,159.47.09c3.26,0,3.74-1.57,3.85-4.32,1.49-37.27-23-71.5-59-82.3-2.34-.7-4.75-1.14-7.94-1.89ZM125.87,150.4q-42.24,0-84.48,0c-2.87,0-4.8.35-4.73,4,.07,3.31,1.81,4,4.48,3.69,6-.78,11,1.33,16,4.32,6.57,3.94,13.28,7.67,20.12,11.1a21.2,21.2,0,0,0,8.94,2.34c20.49.2,41-.65,61.48.35,15.77.77,29.8-2.19,42.82-11.18,6.23-4.3,12.82-8.51,21.23-7.08.84.14,2.69-1.68,3-2.85.9-3.83-1.27-4.7-4.8-4.69C181.86,150.45,153.86,150.4,125.87,150.4Z"/>
        <path class="cls-1" d="M142,139.92V58.68c3.19.75,5.61,1.19,7.94,1.89,36,10.79,60.54,45,59,82.3-.11,2.75-.59,4.32-3.85,4.32q-79.73-.11-159.47-.09a8,8,0,0,1-1.84-.43c-5.54-43.38,29.29-82.15,65.46-87.32V139l1.57.05q0-2.38,0-4.76c0-24.16.12-48.32-.09-72.48,0-4.83,1.46-6.48,6.26-6.19a150.76,150.76,0,0,0,18,0c4.56-.27,5.64,1.59,5.62,5.8-.14,24.33-.07,48.66-.07,73q0,2.7,0,5.41Z"/>
        <path class="cls-1" d="M125.87,150.4c28,0,56,0,84-.06,3.54,0,5.7.86,4.8,4.69-.27,1.17-2.12,3-3,2.85-8.4-1.44-15,2.78-21.23,7.08-13,9-27.05,11.95-42.82,11.18-20.45-1-41-.15-61.48-.35a21.2,21.2,0,0,1-8.94-2.34c-6.84-3.43-13.56-7.16-20.12-11.1-5-3-10-5.1-16-4.32-2.67.35-4.41-.38-4.48-3.69-.07-3.63,1.86-4,4.73-4Q83.62,150.45,125.87,150.4Z"/>
      </g>
    </g>
  </g>
</svg>
