<svg xmlns="http://www.w3.org/2000/svg" viewBox="0 0 18.71 18.92">
  <defs>
    <style>
      .cls-1 {
        fill: #fff;
      }
    </style>
  </defs>
  <title>traffic</title>
  <g id="Layer_2" data-name="Layer 2">
    <g id="Layer_1-2" data-name="Layer 1">
      <g>
        <path d="M15.75,17.73H8.55c0,.21,0,.41,0,.61a.51.51,0,0,1-.57.58H6.76a.52.52,0,0,1-.57-.57c0-1.19,0-2.39,0-3.58A3.2,3.2,0,0,1,6.34,14a5.23,5.23,0,0,1,.18-.49H6A.4.4,0,0,1,5.62,13a4.12,4.12,0,0,1,.17-.51A.76.76,0,0,1,6.53,12c.17,0,.38,0,.49,0s.13-.3.2-.45c.2-.51.4-1,.59-1.52a1.22,1.22,0,0,1,.74-.72,6.26,6.26,0,0,1,2.09-.4,21.82,21.82,0,0,1,3.8.07,8.56,8.56,0,0,1,1.34.31,1,1,0,0,1,.69.67c.23.63.49,1.26.72,1.89.05.14.11.2.27.19a2.29,2.29,0,0,1,.43,0,.65.65,0,0,1,.54.35,3.58,3.58,0,0,1,.27.74.39.39,0,0,1-.4.49h-.51c.07.18.13.33.18.49a2.9,2.9,0,0,1,.14.69c0,1.22,0,2.44,0,3.66a.5.5,0,0,1-.54.54H16.28a.5.5,0,0,1-.53-.53C15.75,18.18,15.75,18,15.75,17.73Zm.71-5.2a2,2,0,0,0-.05-.22l-.74-1.9a.5.5,0,0,0-.35-.33,7,7,0,0,0-1.22-.26c-1-.06-2-.09-3.05-.07a13.33,13.33,0,0,0-1.8.22.71.71,0,0,0-.58.36c-.19.41-.39.83-.55,1.25s-.19.6-.29.94A21.27,21.27,0,0,0,16.46,12.53Zm-1,3.43v0c.22,0,.45,0,.67,0,.6,0,.76-.21.76-.8,0,0,0,0,0-.06,0-.57-.21-.73-.77-.59l-.12,0c-.3.13-.6.25-.89.39a3.86,3.86,0,0,0-.54.3.38.38,0,0,0-.16.46.38.38,0,0,0,.38.25ZM8.77,16v0c.24,0,.47,0,.71,0a.36.36,0,0,0,.36-.25.4.4,0,0,0-.14-.45.85.85,0,0,0-.17-.12c-.37-.18-.74-.37-1.12-.52a2.16,2.16,0,0,0-.67-.12c-.22,0-.34.12-.36.35s0,.3,0,.45c0,.42.11.56.52.63S8.48,15.94,8.77,16Z"/>
        <path d="M.92,7.94H.41c-.28,0-.46-.16-.4-.43a2.85,2.85,0,0,1,.31-.85A.72.72,0,0,1,1,6.37c.4,0,.4,0,.54-.37.21-.54.43-1.08.63-1.62A1.26,1.26,0,0,1,3,3.63a6.65,6.65,0,0,1,2.28-.39,21.4,21.4,0,0,1,3.7.1,8.13,8.13,0,0,1,1.2.29,1,1,0,0,1,.7.67c.24.64.5,1.28.74,1.92a.2.2,0,0,0,.22.15c.25,0,.51-.06.73.1a1,1,0,0,1,.31.31,2.78,2.78,0,0,1,.23.63c.08.33-.09.51-.43.53-1.09.06-2.18.11-3.26.23a3.2,3.2,0,0,0-1.79.7,2,2,0,0,0-.48.64c-.23.49-.41,1-.61,1.51a.21.21,0,0,1-.2.15A1.5,1.5,0,0,0,5.14,12a.24.24,0,0,1-.25.14H3c0,.22,0,.43,0,.63a.51.51,0,0,1-.56.56H1.15a.5.5,0,0,1-.55-.56c0-1.2,0-2.4,0-3.6a3.22,3.22,0,0,1,.14-.73C.79,8.28.85,8.13.92,7.94Zm9.94-1a1.88,1.88,0,0,0,0-.21l-.75-1.93a.47.47,0,0,0-.33-.31,8.89,8.89,0,0,0-1.11-.25,18.74,18.74,0,0,0-3.46-.07,14.16,14.16,0,0,0-1.55.22.67.67,0,0,0-.54.34c-.22.47-.42.94-.62,1.42-.1.24-.15.5-.24.79A21.46,21.46,0,0,0,10.86,6.93ZM3.1,10.37A8.44,8.44,0,0,0,4,10.31a.37.37,0,0,0,.19-.63A.65.65,0,0,0,4,9.52c-.44-.21-.88-.42-1.33-.6a1.2,1.2,0,0,0-.49-.06.33.33,0,0,0-.35.34,4.57,4.57,0,0,0,0,.5c0,.34.1.5.43.56S2.85,10.34,3.1,10.37Z"/>
        <path d="M13.82,8a1.79,1.79,0,0,0-.16-1.45,1.52,1.52,0,0,0-1.31-1,.18.18,0,0,1-.13-.07c-.18-.44-.35-.88-.52-1.34A18.39,18.39,0,0,0,16.5,3.7c-.2-.53-.38-1-.58-1.54-.06-.15-.15-.28-.19-.43a.8.8,0,0,0-.65-.54,7.82,7.82,0,0,0-2-.24c-1,0-1.92,0-2.88.07A5.32,5.32,0,0,0,9,1.27a.71.71,0,0,0-.34.32,6.15,6.15,0,0,0-.35.72.18.18,0,0,1-.2.12H7.28c.23-.54.42-1,.64-1.5A1.1,1.1,0,0,1,8.56.44,6.61,6.61,0,0,1,10.89,0a21.38,21.38,0,0,1,3.5.08A9.06,9.06,0,0,1,15.8.45a1,1,0,0,1,.66.65c.24.64.5,1.28.74,1.92a.21.21,0,0,0,.24.16c.87-.06,1,.26,1.19.86,0,.07,0,.13.06.2a.4.4,0,0,1-.41.51h-.5c.07.18.14.33.18.49a3,3,0,0,1,.14.71c0,1.21,0,2.42,0,3.64a.51.51,0,0,1-.28.49.31.31,0,0,1-.5-.17,2.31,2.31,0,0,0-.74-1.14,3.7,3.7,0,0,0-1.48-.55C14.69,8.12,14.26,8.08,13.82,8Zm1.84-.85c.23,0,.54,0,.84-.1s.42-.14.43-.4a5.27,5.27,0,0,0,0-.71.32.32,0,0,0-.31-.3.72.72,0,0,0-.33,0c-.48.19-1,.39-1.43.6a1,1,0,0,0-.24.15.39.39,0,0,0-.15.45.36.36,0,0,0,.35.25Z"/>
        <path class="cls-1" d="M16.46,12.53a21.27,21.27,0,0,1-8.65,0c.1-.34.18-.65.29-.94s.36-.84.55-1.25A.71.71,0,0,1,9.25,10,13.33,13.33,0,0,1,11,9.75c1,0,2,0,3.05.07a7,7,0,0,1,1.22.26.5.5,0,0,1,.35.33l.74,1.9A2,2,0,0,1,16.46,12.53Z"/>
        <path class="cls-1" d="M15.51,16l-.67,0a.38.38,0,0,1-.38-.25.38.38,0,0,1,.16-.46,3.86,3.86,0,0,1,.54-.3c.29-.14.59-.26.89-.39l.12,0c.56-.14.76,0,.77.59,0,0,0,0,0,.06,0,.58-.16.76-.76.8-.22,0-.45,0-.67,0Z"/>
        <path class="cls-1" d="M8.77,16c-.29,0-.59,0-.88-.08s-.52-.21-.52-.63c0-.15,0-.3,0-.45s.14-.36.36-.35a2.16,2.16,0,0,1,.67.12c.38.15.75.34,1.12.52a.85.85,0,0,1,.17.12.4.4,0,0,1,.14.45.36.36,0,0,1-.36.25c-.24,0-.47,0-.71,0Z"/>
        <path class="cls-1" d="M10.86,6.93a21.46,21.46,0,0,1-8.64,0c.09-.29.14-.55.24-.79.19-.48.4-1,.62-1.42a.67.67,0,0,1,.54-.34,14.16,14.16,0,0,1,1.55-.22,18.74,18.74,0,0,1,3.46.07,8.89,8.89,0,0,1,1.11.25.47.47,0,0,1,.33.31l.75,1.93A1.88,1.88,0,0,1,10.86,6.93Z"/>
        <path class="cls-1" d="M3.1,10.37c-.25,0-.58,0-.91-.11S1.77,10,1.77,9.7a4.57,4.57,0,0,1,0-.5.33.33,0,0,1,.35-.34,1.2,1.2,0,0,1,.49.06c.45.18.89.4,1.33.6a.65.65,0,0,1,.19.15.37.37,0,0,1-.19.63A8.44,8.44,0,0,1,3.1,10.37Z"/>
        <path class="cls-1" d="M15.65,7.17l-.84,0a.36.36,0,0,1-.35-.25.39.39,0,0,1,.15-.45,1,1,0,0,1,.24-.15c.47-.2.95-.41,1.43-.6a.72.72,0,0,1,.33,0,.32.32,0,0,1,.31.3,5.27,5.27,0,0,1,0,.71c0,.26-.22.36-.43.4S15.88,7.14,15.65,7.17Z"/>
      </g>
    </g>
  </g>
</svg>
