<svg xmlns="http://www.w3.org/2000/svg" viewBox="0 0 281.95 441.13">
  <defs>
    <style>
      .cls-1 {
        fill: #fff;
      }
    </style>
  </defs>
  <title>transit</title>
  <g id="Layer_2" data-name="Layer 2">
    <g id="Layer_1-2" data-name="Layer 1">
      <g>
        <path d="M62.94,348.4c-17.06-.79-30.7-7-41.19-19.67A51.8,51.8,0,0,1,9.57,294.81q-.1-101.85,0-203.7c.06-30.25,23.79-53.51,54-53.51H218.2c30.92,0,54.33,23.3,54.37,54.35q.11,79.41,0,158.82c0,13.81-.28,27.63.06,41.43.77,31.89-23.62,55.33-52,56.08a6.39,6.39,0,0,0-1.23.45l62.55,92.07c-1.45.11-2.5.26-3.54.26-11.51,0-23-.08-34.52.08a5.53,5.53,0,0,1-5.25-2.83c-14.26-20.75-28.65-41.41-42.9-62.16a6.6,6.6,0,0,0-6.19-3.34q-48.53.19-97.05,0a6.28,6.28,0,0,0-5.92,3.08c-14.25,20.75-28.65,41.4-42.9,62.16a6.16,6.16,0,0,1-5.89,3.08c-11.12-.18-22.25-.07-33.37-.07H0ZM143.75,93.5c-26.34,0-52.67-.05-79,0a22.8,22.8,0,0,0-22.95,22.9q-.16,24.74,0,49.48A22.78,22.78,0,0,0,64.44,188.7q79.2.13,158.41,0c11.69,0,21.79-8.95,22.21-20.62.63-17.49.78-35,.17-52.51-.48-13.63-10.37-22.06-24-22.07Q182.49,93.47,143.75,93.5Zm-.24-10.75c10,0,19.93.05,29.9,0,6,0,8.86-3,8.9-9q.06-8.24,0-16.48c0-6.07-2.84-8.91-8.92-8.92q-29.71,0-59.41,0c-6.19,0-9.18,2.93-9.29,9.12-.09,5.24-.06,10.48,0,15.71.07,6.62,3,9.55,9.69,9.57C124.08,82.78,133.79,82.75,143.5,82.75Zm99.23,210.47a26.45,26.45,0,1,0-26.35,26.4A26.62,26.62,0,0,0,242.74,293.21Zm-146.5.18a26.39,26.39,0,0,0-26.17-26.5,26.36,26.36,0,1,0-.25,52.72A26.28,26.28,0,0,0,96.24,293.4Z"/>
        <path d="M163,33c-9.41,0-16.28-7.08-16.22-16.62A16.33,16.33,0,0,1,163.39,0a16.55,16.55,0,0,1,16.36,16.78A16.29,16.29,0,0,1,163,33Z"/>
        <path d="M124.31,33a16.35,16.35,0,0,1-16.56-16.46,16.58,16.58,0,0,1,33.16.08A16.23,16.23,0,0,1,124.31,33Z"/>
        <path class="cls-1" d="M143.75,93.5q38.74,0,77.48,0c13.64,0,23.53,8.44,24,22.07.61,17.48.46,35-.17,52.51-.42,11.68-10.52,20.61-22.21,20.62q-79.2.12-158.41,0A22.78,22.78,0,0,1,41.78,165.9q-.16-24.74,0-49.48a22.8,22.8,0,0,1,22.95-22.9C91.07,93.44,117.41,93.5,143.75,93.5Z"/>
        <path class="cls-1" d="M143.5,82.75c-9.71,0-19.42,0-29.13,0-6.66,0-9.62-2.95-9.69-9.57-.05-5.24-.08-10.48,0-15.71.1-6.18,3.09-9.11,9.29-9.12q29.71,0,59.41,0c6.08,0,8.89,2.85,8.92,8.92q0,8.24,0,16.48c0,6-2.89,8.94-8.9,9C163.44,82.8,153.47,82.75,143.5,82.75Z"/>
        <path class="cls-1" d="M242.74,293.21a26.45,26.45,0,1,1-26.49-26.32A26.53,26.53,0,0,1,242.74,293.21Z"/>
        <path class="cls-1" d="M96.24,293.4a26.28,26.28,0,0,1-26.42,26.21A26.36,26.36,0,1,1,96.24,293.4Z"/>
      </g>
    </g>
  </g>
</svg>
