<svg xmlns="http://www.w3.org/2000/svg" viewBox="0 0 481.72 500.95">
  <title>traveltimes</title>
  <g id="Layer_2" data-name="Layer 2">
    <g id="Capa_1" data-name="Capa 1">
      <g>
        <path d="M481.17,19.07l-3.52-7.22c-4,2.06-7.86,4.35-11.68,6.72q-3.26,2-6.44,4.16l-2.8,1.9-2.58-3.91L456.92,19q3.44-2.09,6.94-4.08c4-2.25,8-4.42,12.19-6.35l-2.39-4.9L472.23.78c-.37-.75-.23-.94-1-.64a227.52,227.52,0,0,0-21.36,9C433,17.21,416.69,27.08,402.57,39.32,387.93,52,374.92,66.7,366,84a126,126,0,0,0-13.91,56.06A148.21,148.21,0,0,0,355,169.29c1.82,9.79,5.12,19.13,8.52,28.46,2.32,6.73,6,13,8.51,19.6a98.22,98.22,0,0,1,3.9,13.19,39.37,39.37,0,0,1,.64,13,28.28,28.28,0,0,1-4,11.3c-2.2,3.75-5.55,7-8.75,9.88A96.38,96.38,0,0,1,353,273.08c-15.82,10.64-33.8,18-51.81,24a162.2,162.2,0,0,1,5.69,75.44c-.38,2.67-1.47,8.42-2.54,12.56A162.65,162.65,0,0,1,200.67,499.5l-.71,1.45c6.83-2.46,13.63-5,20.39-7.65q27-10.44,53.36-22.59c35.63-16.47,70.36-35.33,102.3-58.23,30.53-22,59.32-48.22,78.3-81.11,9.53-16.52,16.47-34.78,19.08-53.73a130.33,130.33,0,0,0-5.19-57.77A143.82,143.82,0,0,0,451.44,185c-3.16-4.77-6.48-9.37-9.95-13.92-2-2.58-4.13-5-6.26-7.46a99.36,99.36,0,0,1-8.46-12,67.65,67.65,0,0,1-9.32-22.94A64.83,64.83,0,0,1,418.79,99c5-18.76,16.89-35.44,29.94-49.52A211.13,211.13,0,0,1,474.9,25.67c1.86-1.44,3.75-2.84,5.68-4.2C482.07,20.4,481.92,20.61,481.17,19.07ZM417.8,300.41A165,165,0,0,1,388,334.35a278.39,278.39,0,0,1-34.79,25.22l-10.77-18.34c15.23-8.72,30-18.3,42.88-30.34a133.9,133.9,0,0,0,17-19.41c.29-.4,1.12-1.61,1.12-1.61s1.35.89,1.92,1.25l6.06,3.84,5.18,3.28,1.77,1.14Zm0-101.07c-.12-.22-.18-.33.09.16s.21.39.11.2c8.68,15.75,14.64,33.17,14.56,51.32l-15.74-.3c.66-13.47-2.85-26.85-8.24-39.11A209.4,209.4,0,0,0,398.14,192c-3.18-5.54-5.94-11.19-8.63-17l6.12-2.76c1.31-.59,4.91-2.29,4.91-2.29s5.31,9.9,8.07,14.36C411.71,189.33,414.92,194.24,417.8,199.35Zm3.59-144.21c-9.13,10.51-17.3,21.64-23,34.42a90,90,0,0,0-8.17,38.06L380,127.47c.51-17.47,6.06-34.4,15-49.37a150.16,150.16,0,0,1,15.7-21.29c1.39-1.61,2.89-3.13,4.36-4.68.53-.56,2.14-2.35,2.14-2.35S420.49,53,422,54.4l.05.05C421.8,54.67,421.6,54.9,421.39,55.14Z"/>
        <path d="M294,346.64c0-81.06-65.94-147-147-147S0,265.59,0,346.64s65.94,147,147,147S294,427.7,294,346.64ZM147,456.43A109.79,109.79,0,1,1,256.79,346.64,109.91,109.91,0,0,1,147,456.43Z"/>
        <polygon points="160.49 333.15 160.49 263.84 133.51 263.84 133.51 360.13 232.59 360.13 232.59 333.15 160.49 333.15"/>
      </g>
    </g>
  </g>
</svg>
